<svg xmlns="http://www.w3.org/2000/svg" viewBox="0 0 48 48" width="48" height="48" color="#FF5A1F">
  <line x1="24" y1="14" x2="24" y2="8" stroke="currentColor" stroke-width="3.5" stroke-linecap="round" />
  <circle cx="24" cy="5" r="3" fill="currentColor" />
  <path d="M 10 21 A 4 4 0 0 0 6 25 L 6 27 A 4 4 0 0 0 10 31" fill="none" stroke="currentColor" stroke-width="3.5" stroke-linecap="round" />
  <path d="M 38 21 A 4 4 0 0 1 42 25 L 42 27 A 4 4 0 0 1 38 31" fill="none" stroke="currentColor" stroke-width="3.5" stroke-linecap="round" />
  <rect x="10" y="14" width="28" height="24" rx="6" fill="none" stroke="currentColor" stroke-width="3.5" />
  <circle cx="18" cy="24" r="2.5" fill="currentColor" />
  <circle cx="30" cy="24" r="2.5" fill="currentColor" />
  <path d="M 18 30 Q 24 34 30 30" fill="none" stroke="currentColor" stroke-width="3" stroke-linecap="round" />
</svg>
